<?xml version="1.0" encoding="utf-8"?><svg viewBox="0 0 748 615" xmlns="http://www.w3.org/2000/svg" xmlns:xlink="http://www.w3.org/1999/xlink"><style>:root>svg{display:none}:root>svg:target{display:block}</style><svg fill="none" viewBox="0 0 40 32" id="arrow" xmlns="http://www.w3.org/2000/svg"><path d="M30.276 24.257c-.456 0-1.79.016-2.686 0l-22.863-.35c-.83-.016-1.661 0-2.492-.066-1.14-.1-2.475-.315-2.198-1.81.114-.598 1.351-1.346 2.133-1.396 6.367-.365 12.734-.598 19.101-.847 1.45-.05 2.899 0 4.511-.814-1.742-1.014-3.582-1.894-5.195-3.09-.765-.565-1.66-1.894-1.498-2.625.391-1.628 2.036-1.379 3.127-.897 5.194 2.326 10.438 4.568 15.404 7.31 3.192 1.76 3.16 4.402-.016 6.146-4.25 2.343-8.777 4.137-13.223 6.047-.618.316-1.628.05-2.116-.515-.375-.498.26-1.728.765-2.126 1.075-.864 2.377-1.429 3.599-2.093 1.27-.698 3.224-1.479 3.826-2.093.489-.482.505-.781-.179-.781z" fill="#1B1B1F"/></svg><svg fill="none" viewBox="0 0 318 515" id="grafs" xmlns="http://www.w3.org/2000/svg"><path opacity=".4" d="M111.168 35.535l17.678 17.678-17.678 17.677-17.677-17.677z"/><path opacity=".4" fill="#6845AE" d="M0 490.745L5.747 485l24.105 24.104-5.746 5.745z"/><path opacity=".4" fill="#6845AE" d="M24.104 485.15l5.745 5.745L5.745 515l-5.746-5.746z"/><g opacity=".5" fill="#6B2C88"><circle cx="207.5" cy="2.5" r="2.5"/><circle cx="225.5" cy="2.5" r="2.5"/><circle cx="243.5" cy="2.5" r="2.5"/><circle cx="261.5" cy="2.5" r="2.5"/><circle cx="279.5" cy="2.5" r="2.5"/><circle cx="297.5" cy="2.5" r="2.5"/><circle cx="315.5" cy="2.5" r="2.5"/><circle cx="207.5" cy="23.5" r="2.5"/><circle cx="225.5" cy="23.5" r="2.5"/><circle cx="243.5" cy="23.5" r="2.5"/><circle cx="261.5" cy="23.5" r="2.5"/><circle cx="279.5" cy="23.5" r="2.5"/><circle cx="297.5" cy="23.5" r="2.5"/><circle cx="315.5" cy="23.5" r="2.5"/><circle cx="207.5" cy="44.5" r="2.5"/><circle cx="225.5" cy="44.5" r="2.5"/><circle cx="243.5" cy="44.5" r="2.5"/><circle cx="261.5" cy="44.5" r="2.5"/><circle cx="279.5" cy="44.5" r="2.5"/><circle cx="297.5" cy="44.5" r="2.5"/><circle cx="315.5" cy="44.5" r="2.5"/><circle cx="207.5" cy="65.5" r="2.5"/><circle cx="225.5" cy="65.5" r="2.5"/><circle cx="243.5" cy="65.5" r="2.5"/><circle cx="261.5" cy="65.5" r="2.5"/><circle cx="279.5" cy="65.5" r="2.5"/><circle cx="297.5" cy="65.5" r="2.5"/><circle cx="315.5" cy="65.5" r="2.5"/><circle cx="207.5" cy="86.5" r="2.5"/><circle cx="225.5" cy="86.5" r="2.5"/><circle cx="243.5" cy="86.5" r="2.5"/><circle cx="261.5" cy="86.5" r="2.5"/><circle cx="279.5" cy="86.5" r="2.5"/><circle cx="297.5" cy="86.5" r="2.5"/><circle cx="315.5" cy="86.5" r="2.5"/></g></svg><svg fill="none" viewBox="0 0 57 56" id="logo" xmlns="http://www.w3.org/2000/svg"><path d="M14.694 25.446L8.01 21.514l20.49 12.07-13.806-8.138zM28.5 33.583l20.49-12.069-6.684 3.932L28.5 33.583z" fill="#FFE26E"/><path d="M0 16.792l5.03 2.965a3.889 3.889 0 012.504-1.366L28.5 15.816 7.534 18.392a3.89 3.89 0 00-2.504 1.366l2.98 1.756 6.684 3.932L28.5 33.584l13.806-8.138 6.684-3.932L57 16.792 28.5 0 0 16.792z" fill="#96C9EF"/><path d="M6.06 53.868L4.107 43.135.205 55.82l5.854-1.95z" fill="#55A2FF"/><path d="M8.01 21.514v11.864c0 3.21 2.684 6.089 6.938 8.05A32.92 32.92 0 0028.5 44.111V33.583L8.01 21.514z" fill="#D0E6F8"/><path d="M28.5 33.583v10.528a32.92 32.92 0 0013.553-2.683c4.253-1.961 6.937-4.84 6.937-8.05V21.514L28.5 33.584z" fill="#DBECFA"/><path d="M4.108 39.233a.976.976 0 01-.976-.976V22.265a4.886 4.886 0 014.284-4.842l20.965-2.576a.976.976 0 01.238 1.938L7.654 19.36a2.927 2.927 0 00-2.57 2.904v15.992a.976.976 0 01-.976.976z" fill="#57A4FF"/><path d="M8.01 41.184a3.903 3.903 0 11-7.805 0 3.903 3.903 0 017.806 0z" fill="#398DF3"/></svg><svg fill="none" viewBox="0 0 748 615" id="target" xmlns="http://www.w3.org/2000/svg"><path d="M490.836 44.798a3.99 3.99 0 01-5.784-5.48l29.143-34.172a6.344 6.344 0 119.198 8.716l-32.557 30.936zM493.678 55.693a2.445 2.445 0 01-2.288-4.313l20.57-12.496a3.845 3.845 0 113.598 6.782l-21.88 10.027zM37.808 515.511a3.988 3.988 0 015.783 5.48l-29.143 34.172a6.345 6.345 0 11-9.197-8.716l32.557-30.936zM34.966 504.616a2.445 2.445 0 012.288 4.313l-20.57 12.496a3.845 3.845 0 11-3.598-6.781l21.88-10.028z" fill="#F8D008"/><path d="M422 615c141.385 0 256-114.615 256-256S563.385 103 422 103 166 217.615 166 359s114.615 256 256 256z" fill="url(#dpaint0_linear)"/><path d="M422 389.118c16.633 0 30.118-13.484 30.118-30.118 0-16.633-13.485-30.118-30.118-30.118-16.634 0-30.118 13.485-30.118 30.118 0 16.634 13.484 30.118 30.118 30.118z" fill="#7173F0"/><path d="M422 178.294c-99.801 0-180.706 80.905-180.706 180.706 0 99.801 80.905 180.706 180.706 180.706 99.801 0 180.706-80.905 180.706-180.706 0-99.801-80.905-180.706-180.706-180.706zm0 286.118c-58.218 0-105.412-47.195-105.412-105.412 0-58.217 47.194-105.412 105.412-105.412 58.217 0 105.412 47.195 105.412 105.412 0 58.217-47.195 105.412-105.412 105.412z" fill="#7172F0"/><path d="M736.723 104.648l-46.53-11.458-11.458-46.53c-2.606-10.585-15.778-14.26-23.487-6.551l-49.786 49.786a32.303 32.303 0 00-8.525 30.564l13.038 52.947 52.948 13.038a32.3 32.3 0 0030.563-8.524l49.787-49.786c7.708-7.709 4.035-20.88-6.55-23.486z" fill="#7B7EF7"/><path d="M736.723 104.648l-46.53-11.458-11.458-46.53c-2.606-10.585-15.777-14.258-23.485-6.552l-28.035 28.035a32.303 32.303 0 00-8.525 30.564l13.038 52.947 52.948 13.038a32.3 32.3 0 0030.563-8.524l28.035-28.034c7.707-7.708 4.034-20.88-6.551-23.486z" fill="#7B7EF7"/><path d="M736.723 104.648l-46.53-11.458-11.458-46.53c-2.606-10.584-15.776-14.258-23.484-6.553l-6.286 6.285a32.304 32.304 0 00-8.524 30.564l13.038 52.947 52.948 13.038a32.3 32.3 0 0030.563-8.524l6.283-6.283c7.708-7.709 4.035-20.88-6.55-23.486z" fill="#7B7EF7"/><path d="M422 376.569a17.515 17.515 0 01-12.423-5.145c-6.861-6.861-6.861-17.986 0-24.846l197.716-197.717c6.861-6.861 17.984-6.861 24.846 0 6.861 6.861 6.861 17.985 0 24.846L434.424 371.424A17.517 17.517 0 01422 376.569z" fill="#7173F0"/><defs><linearGradient id="dpaint0_linear" x1="153.953" y1="359" x2="672.117" y2="359" gradientUnits="userSpaceOnUse"><stop stop-color="#7B75F1"/><stop offset="1" stop-color="#7A7FF9"/></linearGradient></defs></svg></svg>